<svg xmlns="http://www.w3.org/2000/svg" width="1.2rem" height="1.2rem" viewBox="0 0 256 256">
    <defs>
      <linearGradient id="gradient" x1="0%" y1="0%" x2="100%" y2="0%">
        <stop offset="0%" style="stop-color:#34ADDA;" />
            <stop offset="30%" style="stop-color:#1E88C6;" />
        <stop offset="100%" style="stop-color:#0E4472;" />
      </linearGradient>
    </defs>
    <path fill="url(#gradient)" stroke="ulr(#gradient)" d="M117.25 157.92a60 60 0 1 0-66.5 0a95.83 95.83 0 0 0-47.22 37.71a8 8 0 1 0 13.4 8.74a80 80 0 0 1 134.14 0a8 8 0 0 0 13.4-8.74a95.83 95.83 0 0 0-47.22-37.71M40 108a44 44 0 1 1 44 44a44.05 44.05 0 0 1-44-44m210.14 98.7a8 8 0 0 1-11.07-2.33A79.83 79.83 0 0 0 172 168a8 8 0 0 1 0-16a44 44 0 1 0-16.34-84.87a8 8 0 1 1-5.94-14.85a60 60 0 0 1 55.53 105.64a95.83 95.83 0 0 1 47.22 37.71a8 8 0 0 1-2.33 11.07"/>
</svg>