<svg xmlns="http://www.w3.org/2000/svg" width="1.2rem" height="1.2rem" viewBox="0 0 16 16">
    <defs>
      <linearGradient id="gradient" x1="0%" y1="0%" x2="100%" y2="0%">
        <stop offset="0%" style="stop-color:#34ADDA;" />
            <stop offset="30%" style="stop-color:#1E88C6;" />
        <stop offset="100%" style="stop-color:#0E4472;" />
      </linearGradient>
    </defs>
    <path fill="url(#gradient)" d="M7 2H5a3.5 3.5 0 1 0 0 7h2v3H2.5v2H7v2h2v-2h2a3.5 3.5 0 1 0 0-7H9V4h4.5V2H9V0H7zm2 7h2a1.5 1.5 0 0 1 0 3H9zM7 7H5a1.5 1.5 0 1 1 0-3h2z"/>
</svg>